<mxfile host="Electron" modified="2023-11-09T02:18:07.549Z" agent="Mozilla/5.0 (Windows NT 10.0; Win64; x64) AppleWebKit/537.36 (KHTML, like Gecko) draw.io/21.5.1 Chrome/112.0.5615.204 Electron/24.6.0 Safari/537.36" etag="ivQClCOAiaDWsRrHezYF" version="21.5.1" type="device">
  <diagram name="Page-1" id="vockLVI6ph4PVM2wqB-W">
    <mxGraphModel dx="1084" dy="1184" grid="1" gridSize="10" guides="1" tooltips="1" connect="1" arrows="1" fold="1" page="1" pageScale="1" pageWidth="827" pageHeight="1169" math="0" shadow="0">
      <root>
        <mxCell id="0" />
        <mxCell id="1" parent="0" />
        <mxCell id="eA_4QNkAzizW6jV0P99J-10" style="edgeStyle=orthogonalEdgeStyle;rounded=0;orthogonalLoop=1;jettySize=auto;html=1;" edge="1" parent="1" source="eA_4QNkAzizW6jV0P99J-1" target="eA_4QNkAzizW6jV0P99J-2">
          <mxGeometry relative="1" as="geometry" />
        </mxCell>
        <mxCell id="eA_4QNkAzizW6jV0P99J-1" value="Attacker" style="sketch=0;outlineConnect=0;fontColor=#FF0000;gradientColor=none;fillColor=#232F3D;strokeColor=none;dashed=0;verticalLabelPosition=top;verticalAlign=bottom;align=center;html=1;fontSize=20;fontStyle=1;aspect=fixed;pointerEvents=1;shape=mxgraph.aws4.client;labelPosition=center;" vertex="1" parent="1">
          <mxGeometry x="418.5" y="260" width="78" height="76" as="geometry" />
        </mxCell>
        <mxCell id="eA_4QNkAzizW6jV0P99J-14" style="edgeStyle=orthogonalEdgeStyle;rounded=0;orthogonalLoop=1;jettySize=auto;html=1;dashed=1;" edge="1" parent="1" source="eA_4QNkAzizW6jV0P99J-2" target="eA_4QNkAzizW6jV0P99J-9">
          <mxGeometry relative="1" as="geometry" />
        </mxCell>
        <mxCell id="eA_4QNkAzizW6jV0P99J-15" style="edgeStyle=orthogonalEdgeStyle;rounded=0;orthogonalLoop=1;jettySize=auto;html=1;dashed=1;" edge="1" parent="1" source="eA_4QNkAzizW6jV0P99J-2" target="eA_4QNkAzizW6jV0P99J-7">
          <mxGeometry relative="1" as="geometry" />
        </mxCell>
        <mxCell id="eA_4QNkAzizW6jV0P99J-17" style="edgeStyle=orthogonalEdgeStyle;rounded=0;orthogonalLoop=1;jettySize=auto;html=1;dashed=1;" edge="1" parent="1" source="eA_4QNkAzizW6jV0P99J-2" target="eA_4QNkAzizW6jV0P99J-8">
          <mxGeometry relative="1" as="geometry">
            <Array as="points">
              <mxPoint x="289" y="490" />
            </Array>
          </mxGeometry>
        </mxCell>
        <mxCell id="eA_4QNkAzizW6jV0P99J-18" style="edgeStyle=orthogonalEdgeStyle;rounded=0;orthogonalLoop=1;jettySize=auto;html=1;dashed=1;" edge="1" parent="1" source="eA_4QNkAzizW6jV0P99J-2" target="eA_4QNkAzizW6jV0P99J-6">
          <mxGeometry relative="1" as="geometry">
            <Array as="points">
              <mxPoint x="619" y="490" />
            </Array>
          </mxGeometry>
        </mxCell>
        <mxCell id="eA_4QNkAzizW6jV0P99J-2" value="C&amp;amp;C Server" style="sketch=0;outlineConnect=0;fontColor=#00994D;gradientColor=none;fillColor=#232F3D;strokeColor=none;dashed=0;verticalLabelPosition=bottom;verticalAlign=top;align=center;html=1;fontSize=20;fontStyle=0;aspect=fixed;pointerEvents=1;shape=mxgraph.aws4.traditional_server;" vertex="1" parent="1">
          <mxGeometry x="435" y="431" width="45" height="78" as="geometry" />
        </mxCell>
        <mxCell id="eA_4QNkAzizW6jV0P99J-3" value="Victim" style="sketch=0;outlineConnect=0;fontColor=#00b9d1;gradientColor=none;fillColor=#232F3D;strokeColor=none;dashed=0;verticalLabelPosition=bottom;verticalAlign=top;align=center;html=1;fontSize=20;fontStyle=1;aspect=fixed;pointerEvents=1;shape=mxgraph.aws4.client;" vertex="1" parent="1">
          <mxGeometry x="418.5" y="690" width="78" height="76" as="geometry" />
        </mxCell>
        <mxCell id="eA_4QNkAzizW6jV0P99J-19" style="edgeStyle=orthogonalEdgeStyle;rounded=0;orthogonalLoop=1;jettySize=auto;html=1;strokeColor=#ff0000;strokeWidth=3;" edge="1" parent="1" source="eA_4QNkAzizW6jV0P99J-6" target="eA_4QNkAzizW6jV0P99J-3">
          <mxGeometry relative="1" as="geometry">
            <Array as="points">
              <mxPoint x="480" y="600" />
            </Array>
          </mxGeometry>
        </mxCell>
        <mxCell id="eA_4QNkAzizW6jV0P99J-6" value="Bot" style="sketch=0;outlineConnect=0;fontColor=#232F3E;gradientColor=none;fillColor=#232F3D;strokeColor=none;dashed=0;verticalLabelPosition=bottom;verticalAlign=top;align=center;html=1;fontSize=20;fontStyle=0;aspect=fixed;pointerEvents=1;shape=mxgraph.aws4.client;" vertex="1" parent="1">
          <mxGeometry x="580" y="570" width="78" height="76" as="geometry" />
        </mxCell>
        <mxCell id="eA_4QNkAzizW6jV0P99J-22" style="edgeStyle=orthogonalEdgeStyle;rounded=0;orthogonalLoop=1;jettySize=auto;html=1;strokeColor=#ff0000;strokeWidth=3;" edge="1" parent="1" source="eA_4QNkAzizW6jV0P99J-7" target="eA_4QNkAzizW6jV0P99J-3">
          <mxGeometry relative="1" as="geometry">
            <Array as="points">
              <mxPoint x="710" y="393" />
              <mxPoint x="710" y="720" />
            </Array>
          </mxGeometry>
        </mxCell>
        <mxCell id="eA_4QNkAzizW6jV0P99J-7" value="Bot" style="sketch=0;outlineConnect=0;fontColor=#232F3E;gradientColor=none;fillColor=#232F3D;strokeColor=none;dashed=0;verticalLabelPosition=top;verticalAlign=bottom;align=center;html=1;fontSize=20;fontStyle=0;aspect=fixed;pointerEvents=1;shape=mxgraph.aws4.client;labelPosition=center;" vertex="1" parent="1">
          <mxGeometry x="580" y="355" width="78" height="76" as="geometry" />
        </mxCell>
        <mxCell id="eA_4QNkAzizW6jV0P99J-20" style="edgeStyle=orthogonalEdgeStyle;rounded=0;orthogonalLoop=1;jettySize=auto;html=1;strokeColor=#ff0000;strokeWidth=3;" edge="1" parent="1" source="eA_4QNkAzizW6jV0P99J-8" target="eA_4QNkAzizW6jV0P99J-3">
          <mxGeometry relative="1" as="geometry">
            <Array as="points">
              <mxPoint x="458" y="600" />
            </Array>
          </mxGeometry>
        </mxCell>
        <mxCell id="eA_4QNkAzizW6jV0P99J-8" value="Bot" style="sketch=0;outlineConnect=0;fontColor=#232F3E;gradientColor=none;fillColor=#232F3D;strokeColor=none;dashed=0;verticalLabelPosition=bottom;verticalAlign=top;align=center;html=1;fontSize=20;fontStyle=0;aspect=fixed;pointerEvents=1;shape=mxgraph.aws4.client;" vertex="1" parent="1">
          <mxGeometry x="250" y="570" width="78" height="76" as="geometry" />
        </mxCell>
        <mxCell id="eA_4QNkAzizW6jV0P99J-21" style="edgeStyle=orthogonalEdgeStyle;rounded=0;orthogonalLoop=1;jettySize=auto;html=1;strokeColor=#ff0000;strokeWidth=3;" edge="1" parent="1" source="eA_4QNkAzizW6jV0P99J-9" target="eA_4QNkAzizW6jV0P99J-3">
          <mxGeometry relative="1" as="geometry">
            <Array as="points">
              <mxPoint x="210" y="393" />
              <mxPoint x="210" y="720" />
            </Array>
          </mxGeometry>
        </mxCell>
        <mxCell id="eA_4QNkAzizW6jV0P99J-9" value="Bot" style="sketch=0;outlineConnect=0;fontColor=#232F3E;gradientColor=none;fillColor=#232F3D;strokeColor=none;dashed=0;verticalLabelPosition=top;verticalAlign=bottom;align=center;html=1;fontSize=20;fontStyle=0;aspect=fixed;pointerEvents=1;shape=mxgraph.aws4.client;labelPosition=center;" vertex="1" parent="1">
          <mxGeometry x="250" y="355" width="78" height="76" as="geometry" />
        </mxCell>
      </root>
    </mxGraphModel>
  </diagram>
</mxfile>
